<svg width="109" height="28" viewBox="0 0 109 28" fill="none" xmlns="http://www.w3.org/2000/svg">
<path d="M6.488 23.94C6.488 24.708 6.572 25.272 6.74 25.632C6.932 25.968 7.28 26.208 7.784 26.352C8.312 26.496 9.128 26.568 10.232 26.568C10.304 26.568 10.34 26.64 10.34 26.784C10.34 26.928 10.304 27 10.232 27C9.248 27 8.48 26.988 7.928 26.964L4.796 26.928L2.204 26.964C1.748 26.988 1.124 27 0.332 27C0.26 27 0.224 26.928 0.224 26.784C0.224 26.64 0.26 26.568 0.332 26.568C1.148 26.568 1.736 26.508 2.096 26.388C2.456 26.268 2.696 26.04 2.816 25.704C2.96 25.368 3.032 24.828 3.032 24.084V7.416C3.032 6.696 2.96 6.168 2.816 5.832C2.696 5.496 2.444 5.268 2.06 5.148C1.7 5.004 1.124 4.932 0.332 4.932C0.26 4.932 0.224 4.86 0.224 4.716C0.224 4.572 0.26 4.5 0.332 4.5L2.204 4.536C3.26 4.584 4.112 4.608 4.76 4.608C5.312 4.608 5.984 4.572 6.776 4.5C7.064 4.476 7.448 4.452 7.928 4.428C8.432 4.404 9.02 4.392 9.692 4.392C12.068 4.392 13.94 4.896 15.308 5.904C16.7 6.912 17.396 8.46 17.396 10.548C17.396 12.06 17 13.344 16.208 14.4C15.44 15.456 14.444 16.248 13.22 16.776C12.02 17.304 10.784 17.568 9.512 17.568C8.84 17.568 8.276 17.508 7.82 17.388C7.748 17.388 7.712 17.328 7.712 17.208C7.712 17.136 7.724 17.064 7.748 16.992C7.796 16.92 7.844 16.896 7.892 16.92C8.276 17.016 8.696 17.064 9.152 17.064C10.4 17.064 11.456 16.548 12.32 15.516C13.184 14.484 13.616 13.008 13.616 11.088C13.616 9.192 13.172 7.728 12.284 6.696C11.396 5.64 10.172 5.112 8.612 5.112C8.036 5.112 7.592 5.172 7.28 5.292C6.992 5.412 6.788 5.64 6.668 5.976C6.548 6.288 6.488 6.792 6.488 7.488V23.94ZM36.289 26.568C36.385 26.568 36.433 26.64 36.433 26.784C36.433 26.928 36.385 27 36.289 27C35.689 27 35.209 26.988 34.849 26.964L32.797 26.928L30.745 26.964C30.385 26.988 29.905 27 29.305 27C29.233 27 29.197 26.928 29.197 26.784C29.197 26.64 29.233 26.568 29.305 26.568C30.097 26.568 30.637 26.4 30.925 26.064C31.213 25.704 31.357 25.044 31.357 24.084V18.72C31.357 16.08 30.325 14.76 28.261 14.76C27.613 14.76 26.953 14.916 26.281 15.228C25.633 15.516 25.057 15.912 24.553 16.416V24.084C24.553 25.068 24.685 25.728 24.949 26.064C25.237 26.4 25.789 26.568 26.605 26.568C26.701 26.568 26.749 26.64 26.749 26.784C26.749 26.928 26.701 27 26.605 27C26.005 27 25.525 26.988 25.165 26.964L23.113 26.928L21.061 26.964C20.701 26.988 20.221 27 19.621 27C19.549 27 19.513 26.928 19.513 26.784C19.513 26.64 19.549 26.568 19.621 26.568C20.413 26.568 20.953 26.4 21.241 26.064C21.529 25.704 21.673 25.044 21.673 24.084V5.688C21.673 4.848 21.589 4.248 21.421 3.888C21.253 3.504 20.977 3.312 20.593 3.312C20.233 3.312 19.741 3.456 19.117 3.744H19.081C19.009 3.744 18.937 3.684 18.865 3.564C18.817 3.42 18.829 3.336 18.901 3.312L23.905 0.935999L24.085 0.899999C24.181 0.899999 24.277 0.947999 24.373 1.044C24.493 1.14 24.553 1.224 24.553 1.296V15.696C26.281 13.704 28.117 12.708 30.061 12.708C31.381 12.708 32.401 13.104 33.121 13.896C33.865 14.688 34.237 15.768 34.237 17.136V24.084C34.237 25.068 34.369 25.728 34.633 26.064C34.921 26.4 35.473 26.568 36.289 26.568ZM52.0519 25.056C52.1479 25.056 52.2079 25.116 52.2319 25.236C52.2559 25.332 52.2199 25.404 52.1239 25.452L48.4159 27.216C48.3199 27.264 48.2119 27.288 48.0919 27.288C47.7319 27.288 47.3839 27.084 47.0479 26.676C46.7359 26.244 46.5319 25.68 46.4359 24.984L44.7799 26.136C44.2039 26.544 43.6759 26.832 43.1959 27C42.7399 27.168 42.2239 27.252 41.6479 27.252C40.6639 27.252 39.9079 27.024 39.3799 26.568C38.8759 26.088 38.6239 25.464 38.6239 24.696C38.6239 24.048 38.7919 23.52 39.1279 23.112C39.4879 22.704 39.9319 22.38 40.4599 22.14C41.0119 21.876 41.8159 21.552 42.8719 21.168L46.3639 19.872V17.712C46.3639 16.224 46.2079 15.144 45.8959 14.472C45.6079 13.776 45.1399 13.428 44.4919 13.428C43.6999 13.428 43.1239 13.728 42.7639 14.328C42.4279 14.904 42.2239 15.552 42.1519 16.272C42.0079 17.496 41.3959 18.108 40.3159 18.108C39.7879 18.108 39.3919 17.988 39.1279 17.748C38.8879 17.508 38.7679 17.208 38.7679 16.848C38.7679 16.176 39.1639 15.528 39.9559 14.904C40.7719 14.256 41.7439 13.74 42.8719 13.356C44.0239 12.948 45.0319 12.744 45.8959 12.744C46.9279 12.744 47.7439 13.068 48.3439 13.716C48.9679 14.364 49.2799 15.336 49.2799 16.632V23.112C49.2799 23.856 49.3999 24.42 49.6399 24.804C49.8799 25.188 50.2279 25.38 50.6839 25.38C51.0439 25.38 51.4759 25.272 51.9799 25.056H52.0519ZM46.3639 24.408V24.048V20.484L44.2039 21.384C43.5799 21.624 43.0639 21.912 42.6559 22.248C42.2719 22.56 42.0799 23.016 42.0799 23.616C42.0799 24.192 42.2599 24.66 42.6199 25.02C43.0039 25.356 43.4599 25.524 43.9879 25.524C44.4199 25.524 44.8759 25.38 45.3559 25.092L46.3639 24.408ZM62.5971 12.744C63.1491 12.744 63.6771 12.924 64.1811 13.284C64.6851 13.644 64.9371 14.076 64.9371 14.58C64.9371 15.036 64.7931 15.408 64.5051 15.696C64.2411 15.984 63.8691 16.128 63.3891 16.128C63.0771 16.128 62.8131 16.068 62.5971 15.948C62.4051 15.804 62.2011 15.612 61.9851 15.372C61.7691 15.156 61.5771 15 61.4091 14.904C61.2411 14.784 61.0371 14.724 60.7971 14.724C60.5331 14.724 60.2451 14.832 59.9331 15.048C59.6451 15.24 59.1891 15.66 58.5651 16.308V24.084C58.5651 24.756 58.6611 25.272 58.8531 25.632C59.0451 25.968 59.3691 26.208 59.8251 26.352C60.2811 26.496 60.9531 26.568 61.8411 26.568C61.9371 26.568 61.9851 26.64 61.9851 26.784C61.9851 26.928 61.9371 27 61.8411 27C61.0491 27 60.4131 26.988 59.9331 26.964L57.0891 26.928L55.0011 26.964C54.6651 26.988 54.1971 27 53.5971 27C53.5251 27 53.4891 26.928 53.4891 26.784C53.4891 26.64 53.5251 26.568 53.5971 26.568C54.4131 26.568 54.9531 26.4 55.2171 26.064C55.4811 25.728 55.6131 25.068 55.6131 24.084V17.208C55.6131 16.44 55.5171 15.876 55.3251 15.516C55.1571 15.156 54.8691 14.976 54.4611 14.976C54.1011 14.976 53.5011 15.156 52.6611 15.516H52.6251C52.5291 15.516 52.4571 15.456 52.4091 15.336C52.3611 15.216 52.3731 15.144 52.4451 15.12L57.1611 12.816C57.3051 12.768 57.3891 12.744 57.4131 12.744C57.6531 12.744 57.8931 13.008 58.1331 13.536C58.3731 14.04 58.5171 14.712 58.5651 15.552C59.5011 14.496 60.2811 13.764 60.9051 13.356C61.5291 12.948 62.0931 12.744 62.5971 12.744ZM92.6939 26.568C92.7899 26.568 92.8379 26.64 92.8379 26.784C92.8379 26.928 92.7899 27 92.6939 27C92.0939 27 91.6139 26.988 91.2539 26.964L89.2019 26.928L87.1499 26.964C86.7899 26.988 86.3099 27 85.7099 27C85.6379 27 85.6019 26.928 85.6019 26.784C85.6019 26.64 85.6379 26.568 85.7099 26.568C86.5019 26.568 87.0419 26.4 87.3299 26.064C87.6179 25.704 87.7619 25.044 87.7619 24.084V18.72C87.7619 17.376 87.5219 16.38 87.0419 15.732C86.5859 15.084 85.8779 14.76 84.9179 14.76C84.2699 14.76 83.6219 14.916 82.9739 15.228C82.3259 15.54 81.7619 15.96 81.2819 16.488V16.848V24.084C81.2819 25.068 81.4139 25.728 81.6779 26.064C81.9659 26.4 82.5179 26.568 83.3339 26.568C83.4059 26.568 83.4419 26.64 83.4419 26.784C83.4419 26.928 83.4059 27 83.3339 27C82.7339 27 82.2539 26.988 81.8939 26.964L79.8059 26.928L77.7539 26.964C77.3939 26.988 76.9139 27 76.3139 27C76.2419 27 76.2059 26.928 76.2059 26.784C76.2059 26.64 76.2419 26.568 76.3139 26.568C77.1299 26.568 77.6699 26.4 77.9339 26.064C78.2219 25.728 78.3659 25.068 78.3659 24.084V18.72C78.3659 17.376 78.1259 16.38 77.6459 15.732C77.1899 15.084 76.4819 14.76 75.5219 14.76C74.9219 14.76 74.3099 14.904 73.6859 15.192C73.0619 15.48 72.5099 15.864 72.0299 16.344V24.084C72.0299 25.068 72.1619 25.728 72.4259 26.064C72.6899 26.4 73.2299 26.568 74.0459 26.568C74.1179 26.568 74.1539 26.64 74.1539 26.784C74.1539 26.928 74.1179 27 74.0459 27C73.4459 27 72.9779 26.988 72.6419 26.964L70.5539 26.928L68.4659 26.964C68.1299 26.988 67.6619 27 67.0619 27C66.9899 27 66.9539 26.928 66.9539 26.784C66.9539 26.64 66.9899 26.568 67.0619 26.568C67.8779 26.568 68.4179 26.4 68.6819 26.064C68.9459 25.728 69.0779 25.068 69.0779 24.084V17.208C69.0779 16.44 68.9819 15.876 68.7899 15.516C68.6219 15.156 68.3339 14.976 67.9259 14.976C67.5659 14.976 66.9659 15.156 66.1259 15.516H66.0899C65.9939 15.516 65.9219 15.456 65.8739 15.336C65.8259 15.216 65.8379 15.144 65.9099 15.12L70.6259 12.816C70.7699 12.768 70.8539 12.744 70.8779 12.744C71.1179 12.744 71.3579 13.02 71.5979 13.572C71.8619 14.1 72.0059 14.796 72.0299 15.66C73.6379 13.692 75.3899 12.708 77.2859 12.708C78.3899 12.708 79.2779 12.984 79.9499 13.536C80.6219 14.064 81.0419 14.844 81.2099 15.876C82.9139 13.764 84.7379 12.708 86.6819 12.708C87.9539 12.708 88.9259 13.08 89.5979 13.824C90.2939 14.544 90.6419 15.648 90.6419 17.136V24.084C90.6419 25.068 90.7739 25.728 91.0379 26.064C91.3259 26.4 91.8779 26.568 92.6939 26.568ZM108.443 25.056C108.539 25.056 108.599 25.116 108.623 25.236C108.647 25.332 108.611 25.404 108.515 25.452L104.807 27.216C104.711 27.264 104.603 27.288 104.483 27.288C104.123 27.288 103.775 27.084 103.439 26.676C103.127 26.244 102.923 25.68 102.827 24.984L101.171 26.136C100.595 26.544 100.067 26.832 99.5865 27C99.1305 27.168 98.6145 27.252 98.0385 27.252C97.0545 27.252 96.2985 27.024 95.7705 26.568C95.2665 26.088 95.0145 25.464 95.0145 24.696C95.0145 24.048 95.1825 23.52 95.5185 23.112C95.8785 22.704 96.3225 22.38 96.8505 22.14C97.4025 21.876 98.2065 21.552 99.2625 21.168L102.755 19.872V17.712C102.755 16.224 102.599 15.144 102.287 14.472C101.999 13.776 101.531 13.428 100.883 13.428C100.091 13.428 99.5145 13.728 99.1545 14.328C98.8185 14.904 98.6145 15.552 98.5425 16.272C98.3985 17.496 97.7865 18.108 96.7065 18.108C96.1785 18.108 95.7825 17.988 95.5185 17.748C95.2785 17.508 95.1585 17.208 95.1585 16.848C95.1585 16.176 95.5545 15.528 96.3465 14.904C97.1625 14.256 98.1345 13.74 99.2625 13.356C100.415 12.948 101.423 12.744 102.287 12.744C103.319 12.744 104.135 13.068 104.735 13.716C105.359 14.364 105.671 15.336 105.671 16.632V23.112C105.671 23.856 105.791 24.42 106.031 24.804C106.271 25.188 106.619 25.38 107.075 25.38C107.435 25.38 107.867 25.272 108.371 25.056H108.443ZM102.755 24.408V24.048V20.484L100.595 21.384C99.9705 21.624 99.4545 21.912 99.0465 22.248C98.6625 22.56 98.4705 23.016 98.4705 23.616C98.4705 24.192 98.6505 24.66 99.0105 25.02C99.3945 25.356 99.8505 25.524 100.379 25.524C100.811 25.524 101.267 25.38 101.747 25.092L102.755 24.408Z" fill="#3599A8"/>
</svg>
